# xmcd
#
# Track frame offsets:
#	150
#	17410
#	33888
#	51297
#	69595
#	83703
#	103223
#	120616
#	136363
#	152286
#	167287
#	183180
#	203212
#	220130
#	236582
#
# Disc length: 3338 seconds
#
# Revision: 1
# Processed by: cddbd v1.5.2PL0 Copyright (c) Steve Scherf et al.
# Submitted via: audiograbber 1.83.01
#
DISCID=bb0d080f
DTITLE=Country - CB60232
DYEAR=2002
DGENRE=Karaoke
TTITLE0=Living and Living Well
TTITLE1=Untangle My Heart
TTITLE2=She Always Talked About Mexico
TTITLE3=Until We Fall Back In Love Again
TTITLE4=Waste Of Good Whiskey
TTITLE5=I Keep Looking
TTITLE6=Didn't I
TTITLE7=Since I've Seen You Last
TTITLE8=She Was
TTITLE9=The Eagle
TTITLE10=Get Over Yourself
TTITLE11=We The People
TTITLE12=The Slow Way Home
TTITLE13=Freedom Isn't Free
TTITLE14=Don't Waste My Time
EXTD=
EXTT0=
EXTT1=
EXTT2=
EXTT3=
EXTT4=
EXTT5=
EXTT6=
EXTT7=
EXTT8=
EXTT9=
EXTT10=
EXTT11=
EXTT12=
EXTT13=
EXTT14=
PLAYORDER=
